<?xml version="1.0" encoding="UTF-8"?>
<svg width="942.857126px" height="844.372754px" viewBox="0 0 942.857126 844.372754" version="1.1" xmlns="http://www.w3.org/2000/svg" xmlns:xlink="http://www.w3.org/1999/xlink">
    <title>ampt</title>
    <defs>
        <linearGradient x1="0%" y1="0%" x2="100%" y2="0%" id="linearGradient-1">
            <stop stop-color="#6D7CFF" offset="0%"></stop>
            <stop stop-color="#FF51FF" offset="100%"></stop>
        </linearGradient>
    </defs>
    <g id="Page-1" stroke="none" stroke-width="1" fill="none" fill-rule="evenodd">
        <g id="ampt" transform="translate(0, -0)" fill="url(#linearGradient-1)" fill-rule="nonzero">
            <g id="Group">
                <path d="M176.785711,622.285703 L147.321426,622.285703 L147.321426,619.826194 C63.7017845,605.72105 0,532.587664 0,444.489788 C0,374.586361 40.1009017,314.106117 98.4401862,285.066119 C91.9874983,270.397954 88.3928557,254.159262 88.3928557,237.061221 C88.3928557,171.602692 141.1634,118.53061 206.249996,118.53061 C240.92947,118.53061 272.132139,133.61363 293.699995,157.586445 C339.281254,64.2435898 434.716065,3.00242101e-14 545.089275,3.00242101e-14 C698.097318,3.00242101e-14 822.466056,123.479264 824.941057,276.798608 C893.651769,301.18628 942.857126,367.059668 942.857126,444.489788 C942.857126,532.587664 879.155342,605.72105 795.5357,619.826194 L795.5357,622.285703 L766.071415,622.285703 L727.625606,622.285703 L727.625606,566.706757 L758.746056,566.706757 L768.635024,566.706757 L778.348433,565.088428 C834.814978,555.754142 888.03514,488.954015 888.03514,432.25473 C888.03514,383.329203 854.402737,338.517182 807.708132,322.247205 L769.322591,308.867098 L768.67892,268.668984 C766.777196,151.195699 658.335092,56.5714276 539.316482,56.5714276 C454.967768,56.5714276 379.425471,103.069464 342.210219,177.946038 L304.17576,254.440942 L246.27562,191.239449 C235.040819,178.928595 219.622237,172.166296 202.857823,172.166296 C170.587029,172.166296 144.343261,198.088444 144.343261,229.963729 C144.343261,238.142065 146.01093,246.002516 149.317002,253.371688 L172.020643,304.002242 L121.785894,328.566149 C81.5571415,348.246177 56.5714277,387.953014 56.5714277,432.254746 C56.5714277,488.954029 97.5608778,555.754142 154.027422,565.088428 L163.711583,566.706757 L173.600532,566.706757 L207.428568,566.706757 L207.428568,622.285703 L176.785711,622.285703 Z M445.306633,605.808723 L339.428566,558.122619 L535.108249,263.999996 L476.244133,527.415309 L598.553143,576.818628 L355.076863,844.372754 L445.306633,605.808723 Z" id="Shape"></path>
            </g>
        </g>
    </g>
</svg>